<?xml version="1.0" encoding="utf-8"?>
<!-- Generator: Adobe Illustrator 18.1.1, SVG Export Plug-In . SVG Version: 6.00 Build 0)  -->
<!DOCTYPE svg PUBLIC "-//W3C//DTD SVG 1.1//EN" "http://www.w3.org/Graphics/SVG/1.1/DTD/svg11.dtd">
<svg version="1.1" id="Layer_1" xmlns="http://www.w3.org/2000/svg" xmlns:xlink="http://www.w3.org/1999/xlink" x="0px" y="0px"
	 viewBox="-278 270.3 284 56" enable-background="new -278 270.3 284 56" xml:space="preserve">
<g id="Layer_2">
	<path fill="#8FD400" d="M-61.1,309.2v-22h5.2l10.8,14.7v-14.7h4.9v22h-5.3l-10.6-14.3v14.3L-61.1,309.2L-61.1,309.2z"/>
	<path fill="#8FD400" d="M-37.3,309.2v-22h19.5v3.7H-32v4.9h13.2v3.7H-32v6h14.7v3.7L-37.3,309.2L-37.3,309.2L-37.3,309.2z"/>
	<path fill="#8FD400" d="M-8,309.2v-18.3h-7.8v-3.7H5.1v3.7h-7.8v18.3H-8z"/>
	<path fill="#FFFFFF" d="M-197.2,309.2v-18.3h-7.8v-3.7h20.9v3.7h-7.8v18.3H-197.2z"/>
	<path fill="#FFFFFF" d="M-154.9,309.2l2.2-5h10.5l2.3,5h5.8l-10.5-22h-5.6l-9.6,20.6l-2.2-2.9c-1.3-1.7-2.3-2.9-3-3.6
		c-0.8-0.7-1.7-1.3-2.8-1.8c2.3-0.3,4-1,5.2-2c1.2-1.1,1.7-2.4,1.7-4.1c0-1.3-0.4-2.5-1.1-3.5c-0.8-1-1.8-1.7-3.1-2.1
		c-1.3-0.4-3.3-0.6-6.1-0.6h-11.2v22h5.3V300h1.1c1.2,0,2.1,0.1,2.7,0.3c0.6,0.2,1.1,0.5,1.6,0.9c0.5,0.4,1.4,1.5,2.8,3.2l3.8,4.8
		L-154.9,309.2L-154.9,309.2z M-173.2,296.5h-3.9v-5.6h4.1c2.1,0,3.4,0,3.9,0.1c0.9,0.1,1.5,0.4,2,0.9c0.5,0.5,0.7,1.1,0.7,1.8
		c0,0.7-0.2,1.2-0.5,1.7c-0.4,0.4-0.9,0.7-1.5,0.9C-169.1,296.4-170.7,296.5-173.2,296.5z M-151.1,300.5l3.6-8.2l3.6,8.2
		C-143.9,300.5-151.1,300.5-151.1,300.5z"/>
	<path fill="#FFFFFF" d="M-133.2,287.2h9.7c2.2,0,3.9,0.1,5,0.4c1.5,0.4,2.9,1.1,4,2c1.1,1,1.9,2.2,2.5,3.6c0.6,1.4,0.9,3.1,0.9,5.2
		c0,1.8-0.3,3.4-0.8,4.7c-0.7,1.6-1.6,2.9-2.8,3.9c-0.9,0.8-2.2,1.3-3.7,1.8c-1.2,0.3-2.7,0.5-4.7,0.5h-10L-133.2,287.2
		L-133.2,287.2z M-127.8,290.9v14.6h4c1.5,0,2.6-0.1,3.2-0.2c0.9-0.2,1.6-0.5,2.1-0.9c0.6-0.4,1-1.1,1.4-2.1c0.4-1,0.5-2.3,0.5-4
		c0-1.7-0.2-3-0.5-3.9c-0.4-0.9-0.9-1.6-1.5-2.1c-0.6-0.5-1.5-0.9-2.5-1c-0.7-0.1-2.2-0.2-4.4-0.2L-127.8,290.9L-127.8,290.9
		L-127.8,290.9z"/>
	<path fill="#FFFFFF" d="M-108.5,309.2v-22H-89v3.7h-14.2v4.9H-90v3.7h-13.2v6h14.7v3.7L-108.5,309.2L-108.5,309.2z"/>
	<path fill="#FFFFFF" d="M-85.8,309.2v-22h11.2c2.8,0,4.9,0.2,6.1,0.6c1.3,0.4,2.3,1.1,3.1,2.1c0.8,1,1.1,2.2,1.1,3.5
		c0,1.6-0.6,3-1.7,4.1c-1.2,1.1-2.9,1.8-5.2,2c1.1,0.6,2.1,1.2,2.8,1.8c0.7,0.7,1.7,1.9,3,3.6l3.2,4.3h-6.3l-3.8-4.8
		c-1.4-1.7-2.3-2.8-2.8-3.2c-0.5-0.4-1-0.8-1.6-0.9c-0.6-0.2-1.5-0.3-2.7-0.3h-1.1v9.2L-85.8,309.2L-85.8,309.2z M-80.5,296.5h3.9
		c2.5,0,4.1-0.1,4.8-0.3c0.6-0.2,1.1-0.5,1.5-0.9c0.4-0.4,0.5-1,0.5-1.7c0-0.7-0.2-1.3-0.7-1.8c-0.5-0.5-1.1-0.7-2-0.9
		c-0.4-0.1-1.7-0.1-3.9-0.1h-4.1L-80.5,296.5L-80.5,296.5z"/>
	<path fill="#8FD400" d="M-224.1,275c-2.2-1-4.2-0.6-4.2-0.6s2.1,1.2,1.8,1.7c-1.5,0.4-2.4,1.2-2.4,1.2s1.3-0.4,1.6,0
		c0.2,0.3-0.1,0.3-0.1,0.3s-0.9,0.5-1.4,0.7c-0.4,0.3-0.8,0.6-1.2,0.9c-0.7,0.6-1.3,1.4-2,2c-0.1-0.2,0.2-1,0.2-1.2
		c-0.1-0.5-0.9,0.1-1.1,0.2l-1.1,0.8c-0.1,0.1-0.2,0.2-0.3,0.3c-0.1,0.1-0.2,0.2-0.3,0.2c-0.2,0.1-0.8,0.7-1,0.6
		c-0.2-0.1-0.2-1-0.2-1.2c0-0.3,0.3-0.5,0.5-0.7c0.3-0.3,0.6-0.6,0.9-0.9c0.7-0.7,1.5-1.4,1.4-2.5c-0.1,0.5-0.2,0.9-0.6,1.3
		c-0.3,0.4-0.6,0.7-1,1.1c0,0-0.1-0.2,0-0.3c0-0.1,0.2-0.2,0.2-0.3c0.2-0.2,0.4-0.4,0.5-0.6c0.4-0.7,0.8-1.4,0.9-2.2
		c0-0.3,0.1-0.6,0-0.9c0-0.1-0.1-0.3-0.1-0.5c0,0-0.1,1.4-0.2,1.7c-0.4,1.5-1.7,2.4-1.7,2.4c-0.1,0-0.1,0-0.2-0.1
		c0.3-1.2,0.5-2.5,0.4-3.7c0-0.4-0.1-0.7-0.3-1.1c0,0.1,0,0.3,0,0.4c0.1,1.4,0.1,3.1-0.9,4.3c-0.1,0.1-0.2,0.2-0.3,0.3
		c0,0-1.1,1.1-1.2,1.2c-0.2-0.1-0.4-0.3-0.5-0.4c-0.8-1-2-0.6-2.5-0.1c0.1-0.1,0.4-0.1,0.5-0.1c0.2-0.1,0.4-0.1,0.6-0.1
		c0.4,0,0.8,0.2,1.1,0.5c0.3,0.3,0.5,0.7,0.7,1c0.2,0.4,0.6,0.7,0.6,1.2c0.1,0.9,0.4,2.2,1.6,1.8c0.3-0.1,0.6-0.3,0.9-0.5
		c1.5-0.9,1.3-0.5,1.3-0.5s-0.7,0.8-0.9,1.1c0,0.1-0.1,0.1-0.1,0.1c-0.3,0.4-0.5,0.7-0.7,0.9c-0.4,0.6-0.7,1.1-1,1.6
		c-0.9,1.5-1.7,3.1-2.1,4.8c-0.2,0.7-1.2,5.2-0.3,5.6c-1.2-0.6-0.6-3-1.1-4c0-0.6-0.6-1.7-1.6-0.9c-1.3,0.9-2.3,2.2-2.9,3.7
		c-0.2,0.4-0.4,0.8-0.7,1.1c-0.2,0.2-0.5,0.3-0.7,0.4c0,0,0-0.1,0-0.1c0-0.3,0.2-0.6,0.2-0.9c0,0,0-0.1,0-0.1
		c0.1-0.9-0.8-1.9-0.8-1.9s0,0.1,0.1,0.3c0.1,0.3,0.2,0.6,0.3,0.9c0,0.3,0,0.5-0.2,0.7c0.1-0.3,0-0.5-0.1-0.8c0-0.2-0.4-0.8-0.8-1.3
		c-0.2-0.3-0.6-0.7-0.6-0.7c0.5,1.2,1.5,2.2,0.6,3.7c-0.2-0.2-0.2-0.5-0.4-0.7c-0.5-0.7-1.1-1.3-1.8-1.7c-0.2-0.1-0.4-0.3-0.6-0.4
		c-0.2-0.1-0.4-0.2-0.6-0.2c-0.1,0,0,0,0.1,0.1c0.2,0.1,0.4,0.2,0.6,0.4c0.2,0.2,0.4,0.3,0.5,0.5c0.2,0.3,0.4,0.6,0.5,0.9
		c0.1,0.2,0.2,0.4,0.3,0.5c0.2,0.3,0.4,0.7,0.5,1c0.2,0.3,0.3,0.7,0.4,1c0.1,0.3,0.2,0.7,0.3,1c0,0.4,0,0.8,0,1.1
		c0,0.4,0,0.9-0.2,1.3c-0.1,0.4-0.3,0.9-0.5,1.3c-0.2,0.4-0.4,0.8-0.5,1.2c0.1,0,0.3-0.3,0.4-0.4c0.1-0.2,0.3-0.3,0.4-0.5
		c0.2-0.4,0.4-0.8,0.6-1.1c0.1-0.3,0.4-1.1,0.5-1.2c0.1-0.2,0.2-0.5,0.4-0.7c0.3-0.4,0.7-0.8,1-1.1c0.3-0.3,0.5-0.6,0.7-0.9
		c0.2-0.3,0.5-0.6,0.7-0.9c0.4-0.6,0.9-1.1,1.4-1.7c0.2-0.2,0.3-0.4,0.5-0.6c0.1-0.1,0.2-0.3,0.3-0.4c-0.5,0.8-0.6,3.5-0.6,4.4
		c0,1.5,0.2,3.2,1.8,3.9c-0.5,0.8-1.3,2.1-2,3.1c-0.8,1.2-2.6,3.2-5.3,5.2c-1.2,0.8-2.4,1.5-3.5,2.1c-3.5,1.6-6.3,2.2-8,2.4
		c-0.5,0.1-1.1,0.1-1.7,0.2c-0.1,0-0.1,0-0.1,0c-3.6,0.2-7.5-0.4-10.7-3c-8.7-6.9-4.1-15.8-4.1-15.8c3.5-8.3,14.8-9.2,16.8-9.2
		c-2,0-13.2,0.3-17.2,9c-4.3,9.6,2.6,15.5,4,16.5c3,2.8,10.4,5.4,19.2,2.3c1.7-0.6,3.6-1.3,5.5-2.4c0,0,0,0,0.1,0
		c2.3-1.2,4.7-3.4,6.5-5.2c0.4-0.4,0.8-0.9,1.3-1.4c0,0,0.2-0.3,0.3-0.4c0.7-0.8,1.5-1.8,1.5-1.8c0,0.1,0.1,0.2,0.1,0.2
		c1.1,1.7,2.4,3.2,3.6,4.8c0,0,0,0,0,0c0,0.1,0,0.3,0,0.3c-0.1,1.6-1.9,3.2-2.3,4.8c-0.2,0.8-0.1,1.6-0.1,2.4c0,0.1-0.1,0.3-0.2,0.4
		c-0.1,0.2-0.2,0.4-0.4,0.5c-0.3,0.2-0.6,0.3-0.9,0.4c-0.6,0.2-1.3,0.1-1.9,0.3c-0.2,0.1-0.3,0.2-0.5,0.3c-0.1,0.1-0.4,0.2-0.4,0.3
		c0.1,0,0.2-0.1,0.3-0.1c0.2-0.1,0.4-0.1,0.6-0.2c0.8-0.2,1.6-0.4,2.4-0.2c0.6,0.1,1.1,0.4,1.7,0.6c0.4,0.2,0.7,0.4,1.1,0.7
		c0.3,0.2,0.6,0.4,0.7,0.8c0.1,0.2,0.3,0.5,0.4,0.8c0.2,0.8,0.1,1.4,0.1,2.2c0,0.5-0.4,1.1-0.7,1.5c-0.2,0.3-0.5,0.6-0.7,1
		c0.4-0.1,0.7-0.5,0.9-0.8c0.3-0.3,0.5-0.7,0.6-1.1c0.3-0.9,0.4-1.9,0.3-2.8c0-0.1-0.1-1.4-0.2-1.4c0.1,0,0.3,0.1,0.4,0.2
		c0.1,0,0.1,0.1,0.1,0.1c0.7,0.6,1.5,1.4,1.8,2.3c0.1,0.3,0.1,0.7,0,1c-0.1,0.3-0.2,0.6,0,0.8c0.3-0.7,0.4-1.5,0.3-2.2
		c-0.1-0.7-0.4-1.3-0.8-1.9c-0.1-0.1-0.2-0.3-0.3-0.4c-0.1-0.1-0.3-0.3-0.3-0.4c-0.1-0.3-0.1-0.5,0.1-0.7c0.1-0.2,0.4-0.2,0.6-0.1
		c0.3,0.1,0.6,0.3,0.9,0.5c0.2,0.2,0.4,0.4,0.7,0.6c-0.3-0.6-0.6-1.1-1.3-1.4c-0.4-0.2-0.8-0.3-1.2-0.3c-0.4,0-0.8,0-1.2-0.1
		c-0.2-0.1-0.4-0.2-0.5-0.3c-0.5-0.4-0.9-1.2-0.9-1.8c0-0.7,1-2.5,1.4-3.2c0.3-0.4,0.6-0.9,0.9-1.3c0.2-0.4,0.4-0.8,0.6-1.3
		c0-0.1,0.1-0.2,0.1-0.3v0c0,0,0-0.1,0-0.1c0.2-1.9-0.8-4-1.7-5.6c-0.1-0.1-1.7-2.7-1.6-2.8c0.1-0.2,0.3-0.5,0.4-0.7
		c0.4-0.6,0.8-1.1,1.3-1.6c0,0,0.1-0.1,0.1-0.1c3-3.7,5.1-8.2,5.8-12.8c0-0.1,0.1-0.2,0.1-0.4c0.1,0.3-0.1,4.5,0.3,5
		c0.2,0.3,0.7,0,0.9-0.2c0.3-0.3,0.7-0.6,1-0.9c0,0,1.7-1.6,2-1.8c0.1-0.1,0.2-0.2,0.3-0.2c0.2-0.1,0.3,0,0.5,0c0.1,0,0.2,0,0.2,0.1
		c0.1,0,0.3,0.1,0.3,0.2c0.1,0.1,1.8,1.7,1.9,1.7c0.1,0-1.4-1.7-1.4-1.8c0-0.8,1-0.7,1.6-0.7c0.6,0.1,1.1,0.1,1.7,0.2
		c0.3,0.1,1.3,0.3,1.3,0.3s-2.3-1.1-3.6-1.3c0.1-0.3,0.2-0.2,0.4-0.2c0.2,0,0.4,0,0.7,0c0.5,0,1.2,0,1.8,0.1
		c0.4,0.1,1.1,0.3,1.5,0.6c-0.7-0.5-1.9-1.1-2.7-1.2c-0.4-0.1-0.9-0.2-1.3-0.2c-0.2,0-0.3,0-0.5,0c-0.1,0-0.2-0.1-0.2-0.1
		c0.2-0.1,0.7-0.2,0.8-0.2c0.1,0,1.8-0.1,1.8-0.1s-1.4-0.3-2-0.3c-0.6,0.1-1.1,0.2-1.3,0.3c-0.7,0.4-1.5,0.7-2.1,1.3
		c-0.3,0.3-1.6,1.5-1.9,1.6c-0.3,0-0.3-3.6,0-4c0.1-0.1,0.6-0.9,0.8-1.1c0.1-0.1,0.4-0.1,0.5,0c0.3,0,0.5,0,0.8,0
		c0.3,0,0.6,0,0.9,0.1c0.3,0.1,0.7,0.3,1,0.4c1,0.3,2.2,0.5,3.2,0.3c0.2,0,0.3-0.1,0.5-0.1c0.6-0.1,1.2-0.4,1.7-0.6l4.3-1.9
		c0.8-0.4,1.1-0.9,1.2-1.2c0,0,0,0,0,0c0-0.1,0.2-0.4-0.1-0.8c-0.1-0.2-0.3-0.5-0.8-0.8c-0.3-0.3-0.8-0.6-1.8-0.9
		c-0.2-0.1-0.4-0.1-0.6-0.2c0,0,0,0,0,0c0,0,0,0,0,0c-1.4-2.1-3.8-3.7-3.9-3.7c0.8,1.3,0.7,2.2,0.7,2.2c-1.1-2.3-5.6-4.9-5.6-4.8
		c2.5,2.7,2.3,3.9,2.3,3.9c-2.6-2.2-5.9-3.7-5.9-3.6C-223.7,273.7-224.1,275-224.1,275z M-215.6,277.4c0.3,0,1,0.4,1,0.4
		s-0.5,0.7-0.8,0.8c-0.3,0-1-0.4-1-0.4S-215.9,277.5-215.6,277.4z"/>
</g>
</svg>
