<?xml version="1.0" encoding="UTF-8" standalone="no"?>
<svg
   xmlns:dc="http://purl.org/dc/elements/1.1/"
   xmlns:cc="http://creativecommons.org/ns#"
   xmlns:rdf="http://www.w3.org/1999/02/22-rdf-syntax-ns#"
   xmlns:svg="http://www.w3.org/2000/svg"
   xmlns="http://www.w3.org/2000/svg"
   id="svg8"
   version="1.1"
   viewBox="0 0 200 200"
   height="200"
   width="200">
  <defs
     id="defs2" />
  <metadata
     id="metadata5">
    <rdf:RDF>
      <cc:Work
         rdf:about="">
        <dc:format>image/svg+xml</dc:format>
        <dc:type
           rdf:resource="http://purl.org/dc/dcmitype/StillImage" />
        <dc:title></dc:title>
      </cc:Work>
    </rdf:RDF>
  </metadata>
  <g
     id="layer1">
    <rect
       rx="0"
       y="0"
       x="0"
       height="200"
       width="200"
       id="rect10"
       style="fill:#263238;stroke-width:0.94488192" />
    <g
       transform="matrix(0.53154885,0,0,0.53154635,172.28839,-58.443574)"
       id="Layer_2">
	<path
   style="fill:#8fd400"
   d="m -61.1,309.2 v -22 h 5.2 l 10.8,14.7 v -14.7 h 4.9 v 22 h -5.3 l -10.6,-14.3 v 14.3 z"
   id="path116" />

	<path
   style="fill:#8fd400"
   d="m -37.3,309.2 v -22 h 19.5 v 3.7 H -32 v 4.9 h 13.2 v 3.7 H -32 v 6 h 14.7 v 3.7 z"
   id="path118" />

	<path
   style="fill:#8fd400"
   d="m -8,309.2 v -18.3 h -7.8 v -3.7 H 5.1 v 3.7 h -7.8 v 18.3 z"
   id="path120" />

	<path
   style="fill:#ffffff"
   d="m -197.2,309.2 v -18.3 h -7.8 v -3.7 h 20.9 v 3.7 h -7.8 v 18.3 z"
   id="path122" />

	<path
   style="fill:#ffffff"
   d="m -154.9,309.2 2.2,-5 h 10.5 l 2.3,5 h 5.8 l -10.5,-22 h -5.6 l -9.6,20.6 -2.2,-2.9 c -1.3,-1.7 -2.3,-2.9 -3,-3.6 -0.8,-0.7 -1.7,-1.3 -2.8,-1.8 2.3,-0.3 4,-1 5.2,-2 1.2,-1.1 1.7,-2.4 1.7,-4.1 0,-1.3 -0.4,-2.5 -1.1,-3.5 -0.8,-1 -1.8,-1.7 -3.1,-2.1 -1.3,-0.4 -3.3,-0.6 -6.1,-0.6 h -11.2 v 22 h 5.3 V 300 h 1.1 c 1.2,0 2.1,0.1 2.7,0.3 0.6,0.2 1.1,0.5 1.6,0.9 0.5,0.4 1.4,1.5 2.8,3.2 l 3.8,4.8 z m -18.3,-12.7 h -3.9 v -5.6 h 4.1 c 2.1,0 3.4,0 3.9,0.1 0.9,0.1 1.5,0.4 2,0.9 0.5,0.5 0.7,1.1 0.7,1.8 0,0.7 -0.2,1.2 -0.5,1.7 -0.4,0.4 -0.9,0.7 -1.5,0.9 -0.7,0.1 -2.3,0.2 -4.8,0.2 z m 22.1,4 3.6,-8.2 3.6,8.2 c 0,0 -7.2,0 -7.2,0 z"
   id="path124" />

	<path
   style="fill:#ffffff"
   d="m -133.2,287.2 h 9.7 c 2.2,0 3.9,0.1 5,0.4 1.5,0.4 2.9,1.1 4,2 1.1,1 1.9,2.2 2.5,3.6 0.6,1.4 0.9,3.1 0.9,5.2 0,1.8 -0.3,3.4 -0.8,4.7 -0.7,1.6 -1.6,2.9 -2.8,3.9 -0.9,0.8 -2.2,1.3 -3.7,1.8 -1.2,0.3 -2.7,0.5 -4.7,0.5 h -10 z m 5.4,3.7 v 14.6 h 4 c 1.5,0 2.6,-0.1 3.2,-0.2 0.9,-0.2 1.6,-0.5 2.1,-0.9 0.6,-0.4 1,-1.1 1.4,-2.1 0.4,-1 0.5,-2.3 0.5,-4 0,-1.7 -0.2,-3 -0.5,-3.9 -0.4,-0.9 -0.9,-1.6 -1.5,-2.1 -0.6,-0.5 -1.5,-0.9 -2.5,-1 -0.7,-0.1 -2.2,-0.2 -4.4,-0.2 z"
   id="path126" />

	<path
   style="fill:#ffffff"
   d="m -108.5,309.2 v -22 H -89 v 3.7 h -14.2 v 4.9 H -90 v 3.7 h -13.2 v 6 h 14.7 v 3.7 z"
   id="path128" />

	<path
   style="fill:#ffffff"
   d="m -85.8,309.2 v -22 h 11.2 c 2.8,0 4.9,0.2 6.1,0.6 1.3,0.4 2.3,1.1 3.1,2.1 0.8,1 1.1,2.2 1.1,3.5 0,1.6 -0.6,3 -1.7,4.1 -1.2,1.1 -2.9,1.8 -5.2,2 1.1,0.6 2.1,1.2 2.8,1.8 0.7,0.7 1.7,1.9 3,3.6 l 3.2,4.3 h -6.3 l -3.8,-4.8 c -1.4,-1.7 -2.3,-2.8 -2.8,-3.2 -0.5,-0.4 -1,-0.8 -1.6,-0.9 -0.6,-0.2 -1.5,-0.3 -2.7,-0.3 h -1.1 v 9.2 z m 5.3,-12.7 h 3.9 c 2.5,0 4.1,-0.1 4.8,-0.3 0.6,-0.2 1.1,-0.5 1.5,-0.9 0.4,-0.4 0.5,-1 0.5,-1.7 0,-0.7 -0.2,-1.3 -0.7,-1.8 -0.5,-0.5 -1.1,-0.7 -2,-0.9 -0.4,-0.1 -1.7,-0.1 -3.9,-0.1 h -4.1 z"
   id="path130" />

	<path
   style="fill:#8fd400"
   d="m -224.1,275 c -2.2,-1 -4.2,-0.6 -4.2,-0.6 0,0 2.1,1.2 1.8,1.7 -1.5,0.4 -2.4,1.2 -2.4,1.2 0,0 1.3,-0.4 1.6,0 0.2,0.3 -0.1,0.3 -0.1,0.3 0,0 -0.9,0.5 -1.4,0.7 -0.4,0.3 -0.8,0.6 -1.2,0.9 -0.7,0.6 -1.3,1.4 -2,2 -0.1,-0.2 0.2,-1 0.2,-1.2 -0.1,-0.5 -0.9,0.1 -1.1,0.2 l -1.1,0.8 c -0.1,0.1 -0.2,0.2 -0.3,0.3 -0.1,0.1 -0.2,0.2 -0.3,0.2 -0.2,0.1 -0.8,0.7 -1,0.6 -0.2,-0.1 -0.2,-1 -0.2,-1.2 0,-0.3 0.3,-0.5 0.5,-0.7 0.3,-0.3 0.6,-0.6 0.9,-0.9 0.7,-0.7 1.5,-1.4 1.4,-2.5 -0.1,0.5 -0.2,0.9 -0.6,1.3 -0.3,0.4 -0.6,0.7 -1,1.1 0,0 -0.1,-0.2 0,-0.3 0,-0.1 0.2,-0.2 0.2,-0.3 0.2,-0.2 0.4,-0.4 0.5,-0.6 0.4,-0.7 0.8,-1.4 0.9,-2.2 0,-0.3 0.1,-0.6 0,-0.9 0,-0.1 -0.1,-0.3 -0.1,-0.5 0,0 -0.1,1.4 -0.2,1.7 -0.4,1.5 -1.7,2.4 -1.7,2.4 -0.1,0 -0.1,0 -0.2,-0.1 0.3,-1.2 0.5,-2.5 0.4,-3.7 0,-0.4 -0.1,-0.7 -0.3,-1.1 0,0.1 0,0.3 0,0.4 0.1,1.4 0.1,3.1 -0.9,4.3 -0.1,0.1 -0.2,0.2 -0.3,0.3 0,0 -1.1,1.1 -1.2,1.2 -0.2,-0.1 -0.4,-0.3 -0.5,-0.4 -0.8,-1 -2,-0.6 -2.5,-0.1 0.1,-0.1 0.4,-0.1 0.5,-0.1 0.2,-0.1 0.4,-0.1 0.6,-0.1 0.4,0 0.8,0.2 1.1,0.5 0.3,0.3 0.5,0.7 0.7,1 0.2,0.4 0.6,0.7 0.6,1.2 0.1,0.9 0.4,2.2 1.6,1.8 0.3,-0.1 0.6,-0.3 0.9,-0.5 1.5,-0.9 1.3,-0.5 1.3,-0.5 0,0 -0.7,0.8 -0.9,1.1 0,0.1 -0.1,0.1 -0.1,0.1 -0.3,0.4 -0.5,0.7 -0.7,0.9 -0.4,0.6 -0.7,1.1 -1,1.6 -0.9,1.5 -1.7,3.1 -2.1,4.8 -0.2,0.7 -1.2,5.2 -0.3,5.6 -1.2,-0.6 -0.6,-3 -1.1,-4 0,-0.6 -0.6,-1.7 -1.6,-0.9 -1.3,0.9 -2.3,2.2 -2.9,3.7 -0.2,0.4 -0.4,0.8 -0.7,1.1 -0.2,0.2 -0.5,0.3 -0.7,0.4 0,0 0,-0.1 0,-0.1 0,-0.3 0.2,-0.6 0.2,-0.9 0,0 0,-0.1 0,-0.1 0.1,-0.9 -0.8,-1.9 -0.8,-1.9 0,0 0,0.1 0.1,0.3 0.1,0.3 0.2,0.6 0.3,0.9 0,0.3 0,0.5 -0.2,0.7 0.1,-0.3 0,-0.5 -0.1,-0.8 0,-0.2 -0.4,-0.8 -0.8,-1.3 -0.2,-0.3 -0.6,-0.7 -0.6,-0.7 0.5,1.2 1.5,2.2 0.6,3.7 -0.2,-0.2 -0.2,-0.5 -0.4,-0.7 -0.5,-0.7 -1.1,-1.3 -1.8,-1.7 -0.2,-0.1 -0.4,-0.3 -0.6,-0.4 -0.2,-0.1 -0.4,-0.2 -0.6,-0.2 -0.1,0 0,0 0.1,0.1 0.2,0.1 0.4,0.2 0.6,0.4 0.2,0.2 0.4,0.3 0.5,0.5 0.2,0.3 0.4,0.6 0.5,0.9 0.1,0.2 0.2,0.4 0.3,0.5 0.2,0.3 0.4,0.7 0.5,1 0.2,0.3 0.3,0.7 0.4,1 0.1,0.3 0.2,0.7 0.3,1 0,0.4 0,0.8 0,1.1 0,0.4 0,0.9 -0.2,1.3 -0.1,0.4 -0.3,0.9 -0.5,1.3 -0.2,0.4 -0.4,0.8 -0.5,1.2 0.1,0 0.3,-0.3 0.4,-0.4 0.1,-0.2 0.3,-0.3 0.4,-0.5 0.2,-0.4 0.4,-0.8 0.6,-1.1 0.1,-0.3 0.4,-1.1 0.5,-1.2 0.1,-0.2 0.2,-0.5 0.4,-0.7 0.3,-0.4 0.7,-0.8 1,-1.1 0.3,-0.3 0.5,-0.6 0.7,-0.9 0.2,-0.3 0.5,-0.6 0.7,-0.9 0.4,-0.6 0.9,-1.1 1.4,-1.7 0.2,-0.2 0.3,-0.4 0.5,-0.6 0.1,-0.1 0.2,-0.3 0.3,-0.4 -0.5,0.8 -0.6,3.5 -0.6,4.4 0,1.5 0.2,3.2 1.8,3.9 -0.5,0.8 -1.3,2.1 -2,3.1 -0.8,1.2 -2.6,3.2 -5.3,5.2 -1.2,0.8 -2.4,1.5 -3.5,2.1 -3.5,1.6 -6.3,2.2 -8,2.4 -0.5,0.1 -1.1,0.1 -1.7,0.2 -0.1,0 -0.1,0 -0.1,0 -3.6,0.2 -7.5,-0.4 -10.7,-3 -8.7,-6.9 -4.1,-15.8 -4.1,-15.8 3.5,-8.3 14.8,-9.2 16.8,-9.2 -2,0 -13.2,0.3 -17.2,9 -4.3,9.6 2.6,15.5 4,16.5 3,2.8 10.4,5.4 19.2,2.3 1.7,-0.6 3.6,-1.3 5.5,-2.4 0,0 0,0 0.1,0 2.3,-1.2 4.7,-3.4 6.5,-5.2 0.4,-0.4 0.8,-0.9 1.3,-1.4 0,0 0.2,-0.3 0.3,-0.4 0.7,-0.8 1.5,-1.8 1.5,-1.8 0,0.1 0.1,0.2 0.1,0.2 1.1,1.7 2.4,3.2 3.6,4.8 0,0 0,0 0,0 0,0.1 0,0.3 0,0.3 -0.1,1.6 -1.9,3.2 -2.3,4.8 -0.2,0.8 -0.1,1.6 -0.1,2.4 0,0.1 -0.1,0.3 -0.2,0.4 -0.1,0.2 -0.2,0.4 -0.4,0.5 -0.3,0.2 -0.6,0.3 -0.9,0.4 -0.6,0.2 -1.3,0.1 -1.9,0.3 -0.2,0.1 -0.3,0.2 -0.5,0.3 -0.1,0.1 -0.4,0.2 -0.4,0.3 0.1,0 0.2,-0.1 0.3,-0.1 0.2,-0.1 0.4,-0.1 0.6,-0.2 0.8,-0.2 1.6,-0.4 2.4,-0.2 0.6,0.1 1.1,0.4 1.7,0.6 0.4,0.2 0.7,0.4 1.1,0.7 0.3,0.2 0.6,0.4 0.7,0.8 0.1,0.2 0.3,0.5 0.4,0.8 0.2,0.8 0.1,1.4 0.1,2.2 0,0.5 -0.4,1.1 -0.7,1.5 -0.2,0.3 -0.5,0.6 -0.7,1 0.4,-0.1 0.7,-0.5 0.9,-0.8 0.3,-0.3 0.5,-0.7 0.6,-1.1 0.3,-0.9 0.4,-1.9 0.3,-2.8 0,-0.1 -0.1,-1.4 -0.2,-1.4 0.1,0 0.3,0.1 0.4,0.2 0.1,0 0.1,0.1 0.1,0.1 0.7,0.6 1.5,1.4 1.8,2.3 0.1,0.3 0.1,0.7 0,1 -0.1,0.3 -0.2,0.6 0,0.8 0.3,-0.7 0.4,-1.5 0.3,-2.2 -0.1,-0.7 -0.4,-1.3 -0.8,-1.9 -0.1,-0.1 -0.2,-0.3 -0.3,-0.4 -0.1,-0.1 -0.3,-0.3 -0.3,-0.4 -0.1,-0.3 -0.1,-0.5 0.1,-0.7 0.1,-0.2 0.4,-0.2 0.6,-0.1 0.3,0.1 0.6,0.3 0.9,0.5 0.2,0.2 0.4,0.4 0.7,0.6 -0.3,-0.6 -0.6,-1.1 -1.3,-1.4 -0.4,-0.2 -0.8,-0.3 -1.2,-0.3 -0.4,0 -0.8,0 -1.2,-0.1 -0.2,-0.1 -0.4,-0.2 -0.5,-0.3 -0.5,-0.4 -0.9,-1.2 -0.9,-1.8 0,-0.7 1,-2.5 1.4,-3.2 0.3,-0.4 0.6,-0.9 0.9,-1.3 0.2,-0.4 0.4,-0.8 0.6,-1.3 0,-0.1 0.1,-0.2 0.1,-0.3 v 0 c 0,0 0,-0.1 0,-0.1 0.2,-1.9 -0.8,-4 -1.7,-5.6 -0.1,-0.1 -1.7,-2.7 -1.6,-2.8 0.1,-0.2 0.3,-0.5 0.4,-0.7 0.4,-0.6 0.8,-1.1 1.3,-1.6 0,0 0.1,-0.1 0.1,-0.1 3,-3.7 5.1,-8.2 5.8,-12.8 0,-0.1 0.1,-0.2 0.1,-0.4 0.1,0.3 -0.1,4.5 0.3,5 0.2,0.3 0.7,0 0.9,-0.2 0.3,-0.3 0.7,-0.6 1,-0.9 0,0 1.7,-1.6 2,-1.8 0.1,-0.1 0.2,-0.2 0.3,-0.2 0.2,-0.1 0.3,0 0.5,0 0.1,0 0.2,0 0.2,0.1 0.1,0 0.3,0.1 0.3,0.2 0.1,0.1 1.8,1.7 1.9,1.7 0.1,0 -1.4,-1.7 -1.4,-1.8 0,-0.8 1,-0.7 1.6,-0.7 0.6,0.1 1.1,0.1 1.7,0.2 0.3,0.1 1.3,0.3 1.3,0.3 0,0 -2.3,-1.1 -3.6,-1.3 0.1,-0.3 0.2,-0.2 0.4,-0.2 0.2,0 0.4,0 0.7,0 0.5,0 1.2,0 1.8,0.1 0.4,0.1 1.1,0.3 1.5,0.6 -0.7,-0.5 -1.9,-1.1 -2.7,-1.2 -0.4,-0.1 -0.9,-0.2 -1.3,-0.2 -0.2,0 -0.3,0 -0.5,0 -0.1,0 -0.2,-0.1 -0.2,-0.1 0.2,-0.1 0.7,-0.2 0.8,-0.2 0.1,0 1.8,-0.1 1.8,-0.1 0,0 -1.4,-0.3 -2,-0.3 -0.6,0.1 -1.1,0.2 -1.3,0.3 -0.7,0.4 -1.5,0.7 -2.1,1.3 -0.3,0.3 -1.6,1.5 -1.9,1.6 -0.3,0 -0.3,-3.6 0,-4 0.1,-0.1 0.6,-0.9 0.8,-1.1 0.1,-0.1 0.4,-0.1 0.5,0 0.3,0 0.5,0 0.8,0 0.3,0 0.6,0 0.9,0.1 0.3,0.1 0.7,0.3 1,0.4 1,0.3 2.2,0.5 3.2,0.3 0.2,0 0.3,-0.1 0.5,-0.1 0.6,-0.1 1.2,-0.4 1.7,-0.6 l 4.3,-1.9 c 0.8,-0.4 1.1,-0.9 1.2,-1.2 0,0 0,0 0,0 0,-0.1 0.2,-0.4 -0.1,-0.8 -0.1,-0.2 -0.3,-0.5 -0.8,-0.8 -0.3,-0.3 -0.8,-0.6 -1.8,-0.9 -0.2,-0.1 -0.4,-0.1 -0.6,-0.2 0,0 0,0 0,0 0,0 0,0 0,0 -1.4,-2.1 -3.8,-3.7 -3.9,-3.7 0.8,1.3 0.7,2.2 0.7,2.2 -1.1,-2.3 -5.6,-4.9 -5.6,-4.8 2.5,2.7 2.3,3.9 2.3,3.9 -2.6,-2.2 -5.9,-3.7 -5.9,-3.6 2.1,2.4 1.7,3.7 1.7,3.7 z m 8.5,2.4 c 0.3,0 1,0.4 1,0.4 0,0 -0.5,0.7 -0.8,0.8 -0.3,0 -1,-0.4 -1,-0.4 0,0 0.5,-0.7 0.8,-0.8 z"
   id="path132" />

</g>
  </g>
</svg>
